<?xml version="1.0" standalone="no"?>
<!DOCTYPE svg PUBLIC "-//W3C//DTD SVG 20010904//EN"
 "http://www.w3.org/TR/2001/REC-SVG-20010904/DTD/svg10.dtd">
<svg version="1.0" xmlns="http://www.w3.org/2000/svg"
 width="200.000000pt" height="200.000000pt" viewBox="0 0 200.000000 200.000000"
 preserveAspectRatio="xMidYMid meet">

<g transform="translate(0.000000,200.000000) scale(0.100000,-0.100000)"
fill="#64ffda" stroke="none">
<path d="M811 1810 c-134 -38 -270 -105 -356 -176 -107 -90 -204 -244 -251
-399 -24 -80 -27 -106 -27 -230 0 -124 3 -150 27 -230 86 -285 305 -501 585
-577 108 -30 314 -30 422 0 280 76 499 292 585 577 24 80 27 106 27 230 0 124
-3 150 -27 230 -72 236 -207 396 -426 506 -112 56 -211 80 -360 85 -105 3
-137 1 -199 -16z m293 -353 l-6 -74 33 -24 c33 -23 41 -24 240 -27 241 -4 231
-8 237 100 5 82 18 73 28 -19 7 -69 -6 -117 -37 -133 -10 -6 -40 -10 -68 -10
-48 0 -51 -2 -51 -25 0 -44 -31 -178 -52 -228 -25 -56 -50 -77 -96 -77 -67 0
-103 64 -123 220 -12 93 -18 111 -40 119 -12 4 -12 2 -1 -12 8 -9 11 -21 7
-27 -4 -6 -1 -17 5 -25 7 -9 14 -60 17 -122 3 -90 0 -121 -18 -188 -17 -62
-23 -114 -26 -235 -2 -85 -8 -159 -12 -163 -5 -5 -25 6 -45 23 l-36 32 0 97
c0 151 10 141 -137 141 -119 0 -123 -1 -113 -19 14 -27 13 -268 -1 -277 -6 -3
-28 11 -49 31 -34 33 -39 45 -42 89 l-3 51 -44 7 c-54 9 -119 47 -159 93 -21
23 -40 35 -57 35 -16 0 -38 12 -55 28 -30 31 -37 64 -42 211 -3 62 0 75 15 85
15 9 21 7 33 -9 11 -15 14 -44 12 -120 -2 -93 3 -125 20 -125 4 0 7 42 7 93 1
114 22 172 98 272 114 148 304 227 448 183 30 -9 46 -22 68 -59 32 -50 68 -89
85 -89 6 0 -6 16 -27 36 -20 20 -40 48 -43 61 -6 22 11 125 23 146 11 19 13 1
7 -66z m-507 -829 c29 -33 35 -57 22 -95 -12 -36 -51 -63 -93 -63 -36 0 -76
39 -82 81 -5 28 -1 41 21 67 22 27 34 32 69 32 31 0 48 -6 63 -22z"/>
</g>
</svg>
