<?xml version="1.0" encoding="UTF-8"?>
<!DOCTYPE svg PUBLIC "-//W3C//DTD SVG 1.1//EN" "http://www.w3.org/Graphics/SVG/1.1/DTD/svg11.dtd">
<svg xmlns="http://www.w3.org/2000/svg" version="1.1" width="512px" height="512px" style="shape-rendering:geometricPrecision; text-rendering:geometricPrecision; image-rendering:optimizeQuality; fill-rule:evenodd; clip-rule:evenodd" xmlns:xlink="http://www.w3.org/1999/xlink">
<g><path style="opacity:0.964" fill="#000000" d="M 235.5,49.5 C 306.822,44.9334 366.322,68.9334 414,121.5C 461.168,179.997 474.834,245.664 455,318.5C 432.167,388 386,434.167 316.5,457C 237.627,477.948 168.294,460.948 108.5,406C 52.4022,346.11 34.9022,276.276 56,196.5C 78.8333,127 125,80.8333 194.5,58C 208.082,54.0752 221.748,51.2418 235.5,49.5 Z M 254.5,81.5 C 329.077,84.96 382.91,119.96 416,186.5C 442.42,253.498 433.42,315.165 389,371.5C 342.731,421.812 285.897,440.979 218.5,429C 157.123,413.957 114.623,377.124 91,318.5C 67.2577,242.964 84.0911,178.13 141.5,124C 174.305,96.9315 211.972,82.7648 254.5,81.5 Z M 164.5,176.5 C 173.85,176.365 176.517,180.532 172.5,189C 163.956,192.322 160.123,189.489 161,180.5C 161.69,178.65 162.856,177.316 164.5,176.5 Z M 164.5,249.5 C 173.85,249.365 176.517,253.532 172.5,262C 163.956,265.322 160.123,262.489 161,253.5C 161.69,251.65 162.856,250.316 164.5,249.5 Z M 164.5,320.5 C 173.85,320.365 176.517,324.532 172.5,333C 163.956,336.322 160.123,333.489 161,324.5C 161.69,322.65 162.856,321.316 164.5,320.5 Z"/></g>
<g><path style="opacity:0.929" fill="#000000" d="M 160.5,159.5 C 175.367,157.012 185.534,162.678 191,176.5C 193.982,191.376 188.482,201.543 174.5,207C 159.624,209.982 149.457,204.482 144,190.5C 141.146,175.533 146.646,165.199 160.5,159.5 Z M 164.5,176.5 C 162.856,177.316 161.69,178.65 161,180.5C 160.123,189.489 163.956,192.322 172.5,189C 176.517,180.532 173.85,176.365 164.5,176.5 Z"/></g>
<g><path style="opacity:0.989" fill="#000000" d="M 217.5,167.5 C 264.168,167.333 310.835,167.5 357.5,168C 366.482,172.473 369.649,179.64 367,189.5C 365.167,194 362,197.167 357.5,199C 310.833,199.667 264.167,199.667 217.5,199C 210.513,196.193 207.18,191.027 207.5,183.5C 207.302,175.885 210.635,170.551 217.5,167.5 Z"/></g>
<g><path style="opacity:0.929" fill="#000000" d="M 160.5,232.5 C 175.367,230.012 185.534,235.678 191,249.5C 193.982,264.376 188.482,274.543 174.5,280C 159.624,282.982 149.457,277.482 144,263.5C 141.146,248.533 146.646,238.199 160.5,232.5 Z M 164.5,249.5 C 162.856,250.316 161.69,251.65 161,253.5C 160.123,262.489 163.956,265.322 172.5,262C 176.517,253.532 173.85,249.365 164.5,249.5 Z"/></g>
<g><path style="opacity:0.989" fill="#000000" d="M 217.5,239.5 C 264.168,239.333 310.835,239.5 357.5,240C 366.482,244.473 369.649,251.64 367,261.5C 365.167,266 362,269.167 357.5,271C 310.833,271.667 264.167,271.667 217.5,271C 210.513,268.193 207.18,263.027 207.5,255.5C 207.302,247.885 210.635,242.551 217.5,239.5 Z"/></g>
<g><path style="opacity:0.929" fill="#000000" d="M 160.5,303.5 C 175.367,301.012 185.534,306.678 191,320.5C 193.982,335.376 188.482,345.543 174.5,351C 159.624,353.982 149.457,348.482 144,334.5C 141.146,319.533 146.646,309.199 160.5,303.5 Z M 164.5,320.5 C 162.856,321.316 161.69,322.65 161,324.5C 160.123,333.489 163.956,336.322 172.5,333C 176.517,324.532 173.85,320.365 164.5,320.5 Z"/></g>
<g><path style="opacity:0.989" fill="#000000" d="M 217.5,310.5 C 264.168,310.333 310.835,310.5 357.5,311C 366.482,315.473 369.649,322.64 367,332.5C 365.167,337 362,340.167 357.5,342C 310.833,342.667 264.167,342.667 217.5,342C 210.513,339.193 207.18,334.027 207.5,326.5C 207.302,318.885 210.635,313.551 217.5,310.5 Z"/></g>
</svg>
